<?xml version="1.0" encoding="UTF-8" standalone="no"?>
<!-- Uploaded to: SVG Repo, www.svgrepo.com, Generator: SVG Repo Mixer Tools -->

<svg
   width="800"
   height="800"
   viewBox="0 0 32 32"
   fill="none"
   version="1.1"
   id="svg1"
   sodipodi:docname="search-spinner-symbolic.svg"
   inkscape:version="1.4.3 (0d15f75042, 2025-12-25)"
   xmlns:inkscape="http://www.inkscape.org/namespaces/inkscape"
   xmlns:sodipodi="http://sodipodi.sourceforge.net/DTD/sodipodi-0.dtd"
   xmlns:xlink="http://www.w3.org/1999/xlink"
   xmlns="http://www.w3.org/2000/svg"
   xmlns:svg="http://www.w3.org/2000/svg">
  <sodipodi:namedview
     id="namedview1"
     pagecolor="#ffffff"
     bordercolor="#000000"
     borderopacity="0.25"
     inkscape:showpageshadow="2"
     inkscape:pageopacity="0.0"
     inkscape:pagecheckerboard="0"
     inkscape:deskcolor="#d1d1d1"
     inkscape:zoom="0.73"
     inkscape:cx="400"
     inkscape:cy="400"
     inkscape:window-width="1536"
     inkscape:window-height="795"
     inkscape:window-x="0"
     inkscape:window-y="0"
     inkscape:window-maximized="1"
     inkscape:current-layer="svg1" />
  <defs
     id="defs1">
    <pattern
       xlink:href="#pattern11-2-2-5"
       preserveAspectRatio="xMidYMid"
       id="pattern12"
       patternTransform="matrix(0.17718662,0,0,0.17525563,4.117268,13.052755)" />
    <pattern
       xlink:href="#pattern10-0"
       preserveAspectRatio="xMidYMid"
       id="pattern11-2"
       patternTransform="matrix(0.56208016,0,0,0.55595459,7.1346208,6.9202047)" />
    <pattern
       patternUnits="userSpaceOnUse"
       width="799.9875"
       height="799.995"
       patternTransform="scale(1)"
       preserveAspectRatio="xMidYMid"
       id="pattern10-0"
       style="fill:#000000">
      <path
         d="m 731.7375,574.975 c 27.625,-52.225 43.25,-111.8 43.25,-174.975 0,-207.1 -167.875,-375 -375,-375 L 400,400 M 325,32.52 C 153.825,67.245 25,218.57 25,399.995 c 0,207.1 167.9,375 375,375 79.725,0 152.75,-23.425 213.525,-65.85 M 212.915,525.05 C 253.29,585.3 322.015,625 399.99,625 c 124.275,0 225,-100.725 225,-225 0,-124.275 -100.725,-225 -225,-225 M 325,187.7925 c -72.75,25.7 -127.825,85.625 -144.425,162.2 M 225,400 c 0,-27.6 -22.4,-50 -50,-50 -27.6,0 -50,22.4 -50,50 0,27.6 22.4,50 50,50 27.6,0 50,-22.4 50,-50 z m 475,275 c 0,-27.6 -22.4,-50 -50,-50 -27.6,0 -50,22.4 -50,50 0,27.6 22.4,50 50,50 27.6,0 50,-22.4 50,-50 z"
         stroke="#000000"
         stroke-width="50"
         stroke-linecap="round"
         stroke-linejoin="round"
         id="path1-6-2"
         style="display:inline" />
    </pattern>
    <pattern
       xlink:href="#pattern10-0-8"
       preserveAspectRatio="xMidYMid"
       id="pattern11-2-2"
       patternTransform="matrix(0.17718662,0,0,0.17525563,4.1392396,13.008974)" />
    <pattern
       patternUnits="userSpaceOnUse"
       width="799.9875"
       height="799.995"
       patternTransform="scale(1)"
       preserveAspectRatio="xMidYMid"
       id="pattern10-0-8"
       style="fill:#000000">
      <path
         d="m 731.7375,574.975 c 27.625,-52.225 43.25,-111.8 43.25,-174.975 0,-207.1 -167.875,-375 -375,-375 L 400,400 M 325,32.52 C 153.825,67.245 25,218.57 25,399.995 c 0,207.1 167.9,375 375,375 79.725,0 152.75,-23.425 213.525,-65.85 M 212.915,525.05 C 253.29,585.3 322.015,625 399.99,625 c 124.275,0 225,-100.725 225,-225 0,-124.275 -100.725,-225 -225,-225 M 325,187.7925 c -72.75,25.7 -127.825,85.625 -144.425,162.2 M 225,400 c 0,-27.6 -22.4,-50 -50,-50 -27.6,0 -50,22.4 -50,50 0,27.6 22.4,50 50,50 27.6,0 50,-22.4 50,-50 z m 475,275 c 0,-27.6 -22.4,-50 -50,-50 -27.6,0 -50,22.4 -50,50 0,27.6 22.4,50 50,50 27.6,0 50,-22.4 50,-50 z"
         stroke="#000000"
         stroke-width="50"
         stroke-linecap="round"
         stroke-linejoin="round"
         id="path1-6-2-9"
         style="display:inline" />
    </pattern>
    <pattern
       xlink:href="#pattern10-0-8-0"
       preserveAspectRatio="xMidYMid"
       id="pattern11-2-2-5"
       patternTransform="matrix(0.17718662,0,0,0.17525563,4.1172681,13.052755)" />
    <pattern
       patternUnits="userSpaceOnUse"
       width="799.9875"
       height="799.995"
       patternTransform="scale(1)"
       preserveAspectRatio="xMidYMid"
       id="pattern10-0-8-0"
       style="fill:#000000">
      <path
         d="m 731.7375,574.975 c 27.625,-52.225 43.25,-111.8 43.25,-174.975 0,-207.1 -167.875,-375 -375,-375 L 400,400 M 325,32.52 C 153.825,67.245 25,218.57 25,399.995 c 0,207.1 167.9,375 375,375 79.725,0 152.75,-23.425 213.525,-65.85 M 212.915,525.05 C 253.29,585.3 322.015,625 399.99,625 c 124.275,0 225,-100.725 225,-225 0,-124.275 -100.725,-225 -225,-225 M 325,187.7925 c -72.75,25.7 -127.825,85.625 -144.425,162.2 M 225,400 c 0,-27.6 -22.4,-50 -50,-50 -27.6,0 -50,22.4 -50,50 0,27.6 22.4,50 50,50 27.6,0 50,-22.4 50,-50 z m 475,275 c 0,-27.6 -22.4,-50 -50,-50 -27.6,0 -50,22.4 -50,50 0,27.6 22.4,50 50,50 27.6,0 50,-22.4 50,-50 z"
         stroke="#000000"
         stroke-width="50"
         stroke-linecap="round"
         stroke-linejoin="round"
         id="path1-6-2-9-3"
         style="display:inline" />
    </pattern>
    <pattern
       xlink:href="#pattern10-0-3"
       preserveAspectRatio="xMidYMid"
       id="pattern11-2-4"
       patternTransform="matrix(0.90900894,0,0,0.89910253,1.6187309,1.4866468)" />
    <pattern
       patternUnits="userSpaceOnUse"
       width="799.9875"
       height="799.995"
       patternTransform="scale(1)"
       preserveAspectRatio="xMidYMid"
       id="pattern10-0-3"
       style="fill:#000000">
      <path
         d="m 731.7375,574.975 c 27.625,-52.225 43.25,-111.8 43.25,-174.975 0,-207.1 -167.875,-375 -375,-375 L 400,400 M 325,32.52 C 153.825,67.245 25,218.57 25,399.995 c 0,207.1 167.9,375 375,375 79.725,0 152.75,-23.425 213.525,-65.85 M 212.915,525.05 C 253.29,585.3 322.015,625 399.99,625 c 124.275,0 225,-100.725 225,-225 0,-124.275 -100.725,-225 -225,-225 M 325,187.7925 c -72.75,25.7 -127.825,85.625 -144.425,162.2 M 225,400 c 0,-27.6 -22.4,-50 -50,-50 -27.6,0 -50,22.4 -50,50 0,27.6 22.4,50 50,50 27.6,0 50,-22.4 50,-50 z m 475,275 c 0,-27.6 -22.4,-50 -50,-50 -27.6,0 -50,22.4 -50,50 0,27.6 22.4,50 50,50 27.6,0 50,-22.4 50,-50 z"
         stroke="#000000"
         stroke-width="50"
         stroke-linecap="round"
         stroke-linejoin="round"
         id="path1-6-2-0"
         style="display:inline" />
    </pattern>
    <pattern
       xlink:href="#pattern10-0-8-8"
       preserveAspectRatio="xMidYMid"
       id="pattern11-2-2-7"
       patternTransform="matrix(0.17718662,0,0,0.17525563,23.305213,23.325502)" />
    <pattern
       patternUnits="userSpaceOnUse"
       width="799.9875"
       height="799.995"
       patternTransform="scale(1)"
       preserveAspectRatio="xMidYMid"
       id="pattern10-0-8-8"
       style="fill:#000000">
      <path
         d="m 731.7375,574.975 c 27.625,-52.225 43.25,-111.8 43.25,-174.975 0,-207.1 -167.875,-375 -375,-375 L 400,400 M 325,32.52 C 153.825,67.245 25,218.57 25,399.995 c 0,207.1 167.9,375 375,375 79.725,0 152.75,-23.425 213.525,-65.85 M 212.915,525.05 C 253.29,585.3 322.015,625 399.99,625 c 124.275,0 225,-100.725 225,-225 0,-124.275 -100.725,-225 -225,-225 M 325,187.7925 c -72.75,25.7 -127.825,85.625 -144.425,162.2 M 225,400 c 0,-27.6 -22.4,-50 -50,-50 -27.6,0 -50,22.4 -50,50 0,27.6 22.4,50 50,50 27.6,0 50,-22.4 50,-50 z m 475,275 c 0,-27.6 -22.4,-50 -50,-50 -27.6,0 -50,22.4 -50,50 0,27.6 22.4,50 50,50 27.6,0 50,-22.4 50,-50 z"
         stroke="#000000"
         stroke-width="50"
         stroke-linecap="round"
         stroke-linejoin="round"
         id="path1-6-2-9-6"
         style="display:inline" />
    </pattern>
    <pattern
       xlink:href="#pattern10-0-3-2"
       preserveAspectRatio="xMidYMid"
       id="pattern11-2-4-9"
       patternTransform="matrix(0.90900894,0,0,0.89910253,1.7850133,1.9556879)" />
    <pattern
       patternUnits="userSpaceOnUse"
       width="799.9875"
       height="799.995"
       patternTransform="scale(1)"
       preserveAspectRatio="xMidYMid"
       id="pattern10-0-3-2"
       style="fill:#000000">
      <path
         d="m 731.7375,574.975 c 27.625,-52.225 43.25,-111.8 43.25,-174.975 0,-207.1 -167.875,-375 -375,-375 L 400,400 M 325,32.52 C 153.825,67.245 25,218.57 25,399.995 c 0,207.1 167.9,375 375,375 79.725,0 152.75,-23.425 213.525,-65.85 M 212.915,525.05 C 253.29,585.3 322.015,625 399.99,625 c 124.275,0 225,-100.725 225,-225 0,-124.275 -100.725,-225 -225,-225 M 325,187.7925 c -72.75,25.7 -127.825,85.625 -144.425,162.2 M 225,400 c 0,-27.6 -22.4,-50 -50,-50 -27.6,0 -50,22.4 -50,50 0,27.6 22.4,50 50,50 27.6,0 50,-22.4 50,-50 z m 475,275 c 0,-27.6 -22.4,-50 -50,-50 -27.6,0 -50,22.4 -50,50 0,27.6 22.4,50 50,50 27.6,0 50,-22.4 50,-50 z"
         stroke="#000000"
         stroke-width="50"
         stroke-linecap="round"
         stroke-linejoin="round"
         id="path1-6-2-0-6"
         style="display:inline" />
    </pattern>
    <pattern
       xlink:href="#pattern10-0-8-4"
       preserveAspectRatio="xMidYMid"
       id="pattern11-2-2-0"
       patternTransform="matrix(0.17718662,0,0,0.17525563,4.305522,13.478015)" />
    <pattern
       patternUnits="userSpaceOnUse"
       width="799.9875"
       height="799.995"
       patternTransform="scale(1)"
       preserveAspectRatio="xMidYMid"
       id="pattern10-0-8-4"
       style="fill:#000000">
      <path
         d="m 731.7375,574.975 c 27.625,-52.225 43.25,-111.8 43.25,-174.975 0,-207.1 -167.875,-375 -375,-375 L 400,400 M 325,32.52 C 153.825,67.245 25,218.57 25,399.995 c 0,207.1 167.9,375 375,375 79.725,0 152.75,-23.425 213.525,-65.85 M 212.915,525.05 C 253.29,585.3 322.015,625 399.99,625 c 124.275,0 225,-100.725 225,-225 0,-124.275 -100.725,-225 -225,-225 M 325,187.7925 c -72.75,25.7 -127.825,85.625 -144.425,162.2 M 225,400 c 0,-27.6 -22.4,-50 -50,-50 -27.6,0 -50,22.4 -50,50 0,27.6 22.4,50 50,50 27.6,0 50,-22.4 50,-50 z m 475,275 c 0,-27.6 -22.4,-50 -50,-50 -27.6,0 -50,22.4 -50,50 0,27.6 22.4,50 50,50 27.6,0 50,-22.4 50,-50 z"
         stroke="#000000"
         stroke-width="50"
         stroke-linecap="round"
         stroke-linejoin="round"
         id="path1-6-2-9-8"
         style="display:inline" />
    </pattern>
    <pattern
       xlink:href="#pattern10-0-8-8-1-9"
       preserveAspectRatio="xMidYMid"
       id="pattern11-2-2-7-7-4"
       patternTransform="matrix(0.17718662,0,0,0.17525563,4.2679794,13.449604)" />
    <pattern
       patternUnits="userSpaceOnUse"
       width="799.9875"
       height="799.995"
       patternTransform="scale(1)"
       preserveAspectRatio="xMidYMid"
       id="pattern10-0-8-8-1-9"
       style="fill:#000000">
      <path
         d="m 731.7375,574.975 c 27.625,-52.225 43.25,-111.8 43.25,-174.975 0,-207.1 -167.875,-375 -375,-375 L 400,400 M 325,32.52 C 153.825,67.245 25,218.57 25,399.995 c 0,207.1 167.9,375 375,375 79.725,0 152.75,-23.425 213.525,-65.85 M 212.915,525.05 C 253.29,585.3 322.015,625 399.99,625 c 124.275,0 225,-100.725 225,-225 0,-124.275 -100.725,-225 -225,-225 M 325,187.7925 c -72.75,25.7 -127.825,85.625 -144.425,162.2 M 225,400 c 0,-27.6 -22.4,-50 -50,-50 -27.6,0 -50,22.4 -50,50 0,27.6 22.4,50 50,50 27.6,0 50,-22.4 50,-50 z m 475,275 c 0,-27.6 -22.4,-50 -50,-50 -27.6,0 -50,22.4 -50,50 0,27.6 22.4,50 50,50 27.6,0 50,-22.4 50,-50 z"
         stroke="#000000"
         stroke-width="50"
         stroke-linecap="round"
         stroke-linejoin="round"
         id="path1-6-2-9-6-7-0"
         style="display:inline" />
    </pattern>
    <pattern
       xlink:href="#pattern10-0-8-8-1-9-5"
       preserveAspectRatio="xMidYMid"
       id="pattern11-2-2-7-7-4-1"
       patternTransform="matrix(0.17718662,0,0,0.17525563,23.454829,23.771875)" />
    <pattern
       patternUnits="userSpaceOnUse"
       width="799.9875"
       height="799.995"
       patternTransform="scale(1)"
       preserveAspectRatio="xMidYMid"
       id="pattern10-0-8-8-1-9-5"
       style="fill:#000000">
      <path
         d="m 731.7375,574.975 c 27.625,-52.225 43.25,-111.8 43.25,-174.975 0,-207.1 -167.875,-375 -375,-375 L 400,400 M 325,32.52 C 153.825,67.245 25,218.57 25,399.995 c 0,207.1 167.9,375 375,375 79.725,0 152.75,-23.425 213.525,-65.85 M 212.915,525.05 C 253.29,585.3 322.015,625 399.99,625 c 124.275,0 225,-100.725 225,-225 0,-124.275 -100.725,-225 -225,-225 M 325,187.7925 c -72.75,25.7 -127.825,85.625 -144.425,162.2 M 225,400 c 0,-27.6 -22.4,-50 -50,-50 -27.6,0 -50,22.4 -50,50 0,27.6 22.4,50 50,50 27.6,0 50,-22.4 50,-50 z m 475,275 c 0,-27.6 -22.4,-50 -50,-50 -27.6,0 -50,22.4 -50,50 0,27.6 22.4,50 50,50 27.6,0 50,-22.4 50,-50 z"
         stroke="#000000"
         stroke-width="50"
         stroke-linecap="round"
         stroke-linejoin="round"
         id="path1-6-2-9-6-7-0-9"
         style="display:inline" />
    </pattern>
  </defs>
  <path
     style="baseline-shift:baseline;display:inline;overflow:visible;vector-effect:none;fill:url(#pattern11-2-4-9);enable-background:accumulate;stop-color:#000000"
     d="M 16.129922,1.8078906 A 14.643761,14.484171 0 0 0 1.4861719,16.292031 14.643761,14.484171 0 0 0 16.129922,30.77625 a 14.643761,14.484171 0 0 0 7.964687,-2.365391 2.854404,2.8232961 0 0 0 2.173047,1.001485 2.854404,2.8232961 0 0 0 2.854375,-2.823281 2.854404,2.8232961 0 0 0 -0.95539,-2.099922 14.643761,14.484171 0 0 0 2.607031,-8.19711 14.643761,14.484171 0 0 0 -14.64375,-14.4841404 z"
     id="path1" />
  <path
     id="path2"
     style="baseline-shift:baseline;display:inline;overflow:visible;vector-effect:none;fill:#000000;enable-background:accumulate;stop-color:#000000"
     d="M 16.130859 1.2070312 C 7.7226206 1.2070374 0.88673654 7.9657616 0.88671875 16.292969 C 0.88669085 24.620207 7.7225885 31.376947 16.130859 31.376953 L 16.132891 31.376953 C 18.931786 31.366463 21.646531 30.542436 24.027422 29.095703 C 24.652895 29.644145 25.420864 30.009501 26.265703 30.011719 L 26.267656 30.011719 C 28.16481 30.0117 29.722724 28.476924 29.722734 26.589844 L 29.722734 26.587813 C 29.720434 25.780426 29.372076 25.043157 28.855547 24.433516 C 30.450256 22.005531 31.362546 19.19763 31.373125 16.294844 L 31.373125 16.292891 C 31.373119 15.848196 31.353652 15.407927 31.315469 14.972969 L 30.144687 15.390234 C 30.163971 15.688038 30.173785 15.98838 30.173828 16.291016 C 30.163198 19.097977 29.292857 21.836194 27.675781 24.144531 L 27.367188 24.583984 L 27.769531 24.939453 C 28.247714 25.360922 28.519698 25.959473 28.521484 26.589844 C 28.521478 27.820611 27.524303 28.811448 26.269531 28.8125 C 25.605511 28.8108 24.977096 28.520704 24.550781 28.021484 L 24.208984 27.621094 L 23.767578 27.90625 C 21.497526 29.376011 18.845061 30.164862 16.130859 30.175781 C 8.3640499 30.175776 2.0859118 23.964533 2.0859375 16.292969 C 2.0859539 8.6214342 8.3640798 2.4082088 16.130859 2.4082031 C 16.285762 2.4082032 16.440071 2.4106416 16.59375 2.4155469 L 16.59375 1.2139062 C 16.440009 1.2093544 16.285701 1.2070314 16.130859 1.2070312 z " />
  <path
     style="display:none;fill:#000000;stroke:none;stroke-width:1.2;stroke-dasharray:none;stroke-opacity:1"
     d="M 16.593429,21.8459 V 0 H 32 v 6.69789 z"
     id="path31" />
  <path
     style="baseline-shift:baseline;display:inline;overflow:visible;vector-effect:none;fill:url(#pattern11-2-2-0);enable-background:accumulate;stop-color:#000000"
     d="m 16.171016,7.2978906 a 9.0548811,8.9561996 0 0 0 -8.5945316,6.1955474 2.854404,2.8232961 0 0 0 -0.4748438,-0.04422 2.854404,2.8232961 0 0 0 -2.854375,2.823281 2.854404,2.8232961 0 0 0 2.854375,2.823281 2.854404,2.8232961 0 0 0 0.4867188,-0.04656 9.0548811,8.9561996 0 0 0 8.5826566,6.161015 9.0548811,8.9561996 0 0 0 9.054843,-8.956171 9.0548811,8.9561996 0 0 0 -9.054843,-8.9561734 z"
     id="path3" />
  <path
     id="path4"
     style="baseline-shift:baseline;display:inline;overflow:visible;vector-effect:none;fill:#000000;enable-background:accumulate;stop-color:#000000"
     d="M 16.169922 6.6972656 C 12.169793 6.7057656 8.6599132 9.1933625 7.2363281 12.861328 C 7.1932211 12.859328 7.1506011 12.850049 7.1074219 12.849609 L 7.1054688 12.849609 L 7.1015625 12.849609 C 5.2044091 12.849628 3.6464946 14.386359 3.6464844 16.273438 C 3.6464946 18.160518 5.2044091 19.695293 7.1015625 19.695312 L 7.1054688 19.695312 L 7.1074219 19.695312 C 7.1552549 19.694809 7.2022609 19.684111 7.25 19.681641 C 8.6830021 23.331562 12.183748 25.801861 16.169922 25.810547 L 16.171953 25.810547 C 21.26151 25.810526 25.446526 21.893351 25.801797 16.937812 L 24.548672 17.384375 C 23.992287 21.467158 20.463506 24.609358 16.171953 24.609375 C 12.520909 24.601375 9.2953664 22.283092 8.1582812 18.859375 L 7.9942187 18.365234 L 7.4805469 18.458984 C 7.3552961 18.481804 7.2290163 18.494424 7.1016406 18.496094 L 7.0996875 18.496094 C 5.8449159 18.494994 4.8477411 17.504205 4.8477344 16.273438 C 4.8477411 15.042672 5.8449159 14.04988 7.0996875 14.048828 C 7.2245193 14.050328 7.3479306 14.062184 7.4707812 14.083984 L 7.9844531 14.175781 L 8.1465625 13.679688 C 9.2734944 10.239389 12.507987 7.9062274 16.171875 7.8984375 L 16.171953 7.8984375 C 16.313418 7.8984381 16.454022 7.9018435 16.59375 7.9085938 L 16.59375 6.70625 C 16.45388 6.7002703 16.313281 6.6972662 16.171953 6.6972656 L 16.169922 6.6972656 z " />
  <path
     style="display:none;fill:#000000;stroke:none;stroke-width:1.2;stroke-dasharray:none;stroke-opacity:1"
     d="M 16.593429,21.8459 V 0 H 32 v 6.6978904 z"
     id="path32" />
  <path
     style="baseline-shift:baseline;display:inline;overflow:visible;vector-effect:none;fill:url(#pattern11-2-2-7-7-4);enable-background:accumulate;stop-color:#000000"
     d="m 9.9185324,16.244087 a 2.854404,2.8232961 0 0 1 -2.854404,2.823296 2.854404,2.8232961 0 0 1 -2.854404,-2.823296 2.854404,2.8232961 0 0 1 2.854404,-2.823296 2.854404,2.8232961 0 0 1 2.854404,2.823296 z"
     id="path5" />
  <path
     style="baseline-shift:baseline;display:inline;overflow:visible;vector-effect:none;fill:#000000;enable-background:accumulate;stop-color:#000000"
     d="m 7.0644531,12.861328 c -1.8751184,0 -3.4140625,1.518257 -3.4140625,3.382813 0,1.864556 1.5389441,3.382812 3.4140625,3.382812 1.8751184,0 3.4121099,-1.518256 3.4121099,-3.382812 0,-1.864556 -1.5369915,-3.382813 -3.4121099,-3.382813 z m 0,1.119141 c 1.2777692,0 2.2949219,1.009701 2.2949219,2.263672 0,1.25397 -1.0171527,2.263671 -2.2949219,2.263671 -1.2777691,0 -2.296875,-1.009701 -2.296875,-2.263671 0,-1.253971 1.0191059,-2.263672 2.296875,-2.263672 z"
     id="path6" />
  <path
     style="baseline-shift:baseline;display:inline;overflow:visible;vector-effect:none;fill:url(#pattern11-2-2-7-7-4-1);enable-background:accumulate;stop-color:#000000"
     d="m 29.105382,26.566359 a 2.854404,2.8232961 0 0 1 -2.854404,2.823296 2.854404,2.8232961 0 0 1 -2.854404,-2.823296 2.854404,2.8232961 0 0 1 2.854404,-2.823297 2.854404,2.8232961 0 0 1 2.854404,2.823297 z"
     id="path7" />
  <path
     style="baseline-shift:baseline;display:inline;overflow:visible;vector-effect:none;fill:#000000;enable-background:accumulate;stop-color:#000000"
     d="m 26.251953,23.142578 c -1.897174,0 -3.455078,1.536728 -3.455078,3.423828 0,1.887101 1.557904,3.423828 3.455078,3.423828 1.897174,0 3.453125,-1.536727 3.453125,-3.423828 0,-1.8871 -1.555951,-3.423828 -3.453125,-3.423828 z m 0,1.201172 c 1.255714,0 2.253906,0.99123 2.253906,2.222656 0,1.231427 -0.998192,2.222656 -2.253906,2.222656 -1.255713,0 -2.255859,-0.991229 -2.255859,-2.222656 0,-1.231426 1.000146,-2.222656 2.255859,-2.222656 z"
     id="path8" />
  <path
     style="baseline-shift:baseline;display:inline;overflow:visible;vector-effect:none;fill:#000000;stroke-linecap:round;stroke-linejoin:round;enable-background:accumulate;stop-color:#000000;stop-opacity:1;opacity:1"
     d="m 16.59375,1.2167969 a 1,1 0 0 0 -1,1 V 17.216797 a 1,1 0 0 0 1,1 1,1 0 0 0 1,-1 V 2.2167969 a 1,1 0 0 0 -1,-1 z"
     id="path1-9-06" />
</svg>
