<?xml version="1.0" encoding="UTF-8" standalone="no"?>
<!-- Uploaded to: SVG Repo, www.svgrepo.com, Generator: SVG Repo Mixer Tools -->

<svg
   width="800"
   height="800"
   viewBox="0 0 32 32"
   fill="none"
   version="1.1"
   id="svg1"
   xmlns:xlink="http://www.w3.org/1999/xlink"
   xmlns="http://www.w3.org/2000/svg"
   xmlns:svg="http://www.w3.org/2000/svg">
  <ellipse
     style="display:none;fill:url(#pattern11-2-4);stroke:#ff7878;stroke-width:1.69232;stroke-dasharray:none;stroke-opacity:1"
     id="path11-5-4"
     clip-path="none"
     cx="15.963638"
     cy="15.823018"
     rx="14.643761"
     ry="14.484171" />
  <defs
     id="defs1">
    <pattern
       xlink:href="#pattern11-2-2-5"
       preserveAspectRatio="xMidYMid"
       id="pattern12"
       patternTransform="matrix(0.17718662,0,0,0.17525563,4.117268,13.052755)" />
    <pattern
       xlink:href="#pattern10-0"
       preserveAspectRatio="xMidYMid"
       id="pattern11-2"
       patternTransform="matrix(0.56208016,0,0,0.55595459,7.1346208,6.9202047)" />
    <pattern
       patternUnits="userSpaceOnUse"
       width="799.9875"
       height="799.995"
       patternTransform="scale(1)"
       preserveAspectRatio="xMidYMid"
       id="pattern10-0"
       style="fill:#000000">
      <path
         d="m 731.7375,574.975 c 27.625,-52.225 43.25,-111.8 43.25,-174.975 0,-207.1 -167.875,-375 -375,-375 L 400,400 M 325,32.52 C 153.825,67.245 25,218.57 25,399.995 c 0,207.1 167.9,375 375,375 79.725,0 152.75,-23.425 213.525,-65.85 M 212.915,525.05 C 253.29,585.3 322.015,625 399.99,625 c 124.275,0 225,-100.725 225,-225 0,-124.275 -100.725,-225 -225,-225 M 325,187.7925 c -72.75,25.7 -127.825,85.625 -144.425,162.2 M 225,400 c 0,-27.6 -22.4,-50 -50,-50 -27.6,0 -50,22.4 -50,50 0,27.6 22.4,50 50,50 27.6,0 50,-22.4 50,-50 z m 475,275 c 0,-27.6 -22.4,-50 -50,-50 -27.6,0 -50,22.4 -50,50 0,27.6 22.4,50 50,50 27.6,0 50,-22.4 50,-50 z"
         stroke="#000000"
         stroke-width="50"
         stroke-linecap="round"
         stroke-linejoin="round"
         id="path1-6-2"
         style="display:inline" />
    </pattern>
    <pattern
       xlink:href="#pattern10-0-8"
       preserveAspectRatio="xMidYMid"
       id="pattern11-2-2"
       patternTransform="matrix(0.17718662,0,0,0.17525563,4.1392396,13.008974)" />
    <pattern
       patternUnits="userSpaceOnUse"
       width="799.9875"
       height="799.995"
       patternTransform="scale(1)"
       preserveAspectRatio="xMidYMid"
       id="pattern10-0-8"
       style="fill:#000000">
      <path
         d="m 731.7375,574.975 c 27.625,-52.225 43.25,-111.8 43.25,-174.975 0,-207.1 -167.875,-375 -375,-375 L 400,400 M 325,32.52 C 153.825,67.245 25,218.57 25,399.995 c 0,207.1 167.9,375 375,375 79.725,0 152.75,-23.425 213.525,-65.85 M 212.915,525.05 C 253.29,585.3 322.015,625 399.99,625 c 124.275,0 225,-100.725 225,-225 0,-124.275 -100.725,-225 -225,-225 M 325,187.7925 c -72.75,25.7 -127.825,85.625 -144.425,162.2 M 225,400 c 0,-27.6 -22.4,-50 -50,-50 -27.6,0 -50,22.4 -50,50 0,27.6 22.4,50 50,50 27.6,0 50,-22.4 50,-50 z m 475,275 c 0,-27.6 -22.4,-50 -50,-50 -27.6,0 -50,22.4 -50,50 0,27.6 22.4,50 50,50 27.6,0 50,-22.4 50,-50 z"
         stroke="#000000"
         stroke-width="50"
         stroke-linecap="round"
         stroke-linejoin="round"
         id="path1-6-2-9"
         style="display:inline" />
    </pattern>
    <pattern
       xlink:href="#pattern10-0-8-0"
       preserveAspectRatio="xMidYMid"
       id="pattern11-2-2-5"
       patternTransform="matrix(0.17718662,0,0,0.17525563,4.1172681,13.052755)" />
    <pattern
       patternUnits="userSpaceOnUse"
       width="799.9875"
       height="799.995"
       patternTransform="scale(1)"
       preserveAspectRatio="xMidYMid"
       id="pattern10-0-8-0"
       style="fill:#000000">
      <path
         d="m 731.7375,574.975 c 27.625,-52.225 43.25,-111.8 43.25,-174.975 0,-207.1 -167.875,-375 -375,-375 L 400,400 M 325,32.52 C 153.825,67.245 25,218.57 25,399.995 c 0,207.1 167.9,375 375,375 79.725,0 152.75,-23.425 213.525,-65.85 M 212.915,525.05 C 253.29,585.3 322.015,625 399.99,625 c 124.275,0 225,-100.725 225,-225 0,-124.275 -100.725,-225 -225,-225 M 325,187.7925 c -72.75,25.7 -127.825,85.625 -144.425,162.2 M 225,400 c 0,-27.6 -22.4,-50 -50,-50 -27.6,0 -50,22.4 -50,50 0,27.6 22.4,50 50,50 27.6,0 50,-22.4 50,-50 z m 475,275 c 0,-27.6 -22.4,-50 -50,-50 -27.6,0 -50,22.4 -50,50 0,27.6 22.4,50 50,50 27.6,0 50,-22.4 50,-50 z"
         stroke="#000000"
         stroke-width="50"
         stroke-linecap="round"
         stroke-linejoin="round"
         id="path1-6-2-9-3"
         style="display:inline" />
    </pattern>
    <pattern
       xlink:href="#pattern10-0-3"
       preserveAspectRatio="xMidYMid"
       id="pattern11-2-4"
       patternTransform="matrix(0.90900894,0,0,0.89910253,1.6187309,1.4866468)" />
    <pattern
       patternUnits="userSpaceOnUse"
       width="799.9875"
       height="799.995"
       patternTransform="scale(1)"
       preserveAspectRatio="xMidYMid"
       id="pattern10-0-3"
       style="fill:#000000">
      <path
         d="m 731.7375,574.975 c 27.625,-52.225 43.25,-111.8 43.25,-174.975 0,-207.1 -167.875,-375 -375,-375 L 400,400 M 325,32.52 C 153.825,67.245 25,218.57 25,399.995 c 0,207.1 167.9,375 375,375 79.725,0 152.75,-23.425 213.525,-65.85 M 212.915,525.05 C 253.29,585.3 322.015,625 399.99,625 c 124.275,0 225,-100.725 225,-225 0,-124.275 -100.725,-225 -225,-225 M 325,187.7925 c -72.75,25.7 -127.825,85.625 -144.425,162.2 M 225,400 c 0,-27.6 -22.4,-50 -50,-50 -27.6,0 -50,22.4 -50,50 0,27.6 22.4,50 50,50 27.6,0 50,-22.4 50,-50 z m 475,275 c 0,-27.6 -22.4,-50 -50,-50 -27.6,0 -50,22.4 -50,50 0,27.6 22.4,50 50,50 27.6,0 50,-22.4 50,-50 z"
         stroke="#000000"
         stroke-width="50"
         stroke-linecap="round"
         stroke-linejoin="round"
         id="path1-6-2-0"
         style="display:inline" />
    </pattern>
    <pattern
       xlink:href="#pattern10-0-8-8"
       preserveAspectRatio="xMidYMid"
       id="pattern11-2-2-7"
       patternTransform="matrix(0.17718662,0,0,0.17525563,23.305213,23.325502)" />
    <pattern
       patternUnits="userSpaceOnUse"
       width="799.9875"
       height="799.995"
       patternTransform="scale(1)"
       preserveAspectRatio="xMidYMid"
       id="pattern10-0-8-8"
       style="fill:#000000">
      <path
         d="m 731.7375,574.975 c 27.625,-52.225 43.25,-111.8 43.25,-174.975 0,-207.1 -167.875,-375 -375,-375 L 400,400 M 325,32.52 C 153.825,67.245 25,218.57 25,399.995 c 0,207.1 167.9,375 375,375 79.725,0 152.75,-23.425 213.525,-65.85 M 212.915,525.05 C 253.29,585.3 322.015,625 399.99,625 c 124.275,0 225,-100.725 225,-225 0,-124.275 -100.725,-225 -225,-225 M 325,187.7925 c -72.75,25.7 -127.825,85.625 -144.425,162.2 M 225,400 c 0,-27.6 -22.4,-50 -50,-50 -27.6,0 -50,22.4 -50,50 0,27.6 22.4,50 50,50 27.6,0 50,-22.4 50,-50 z m 475,275 c 0,-27.6 -22.4,-50 -50,-50 -27.6,0 -50,22.4 -50,50 0,27.6 22.4,50 50,50 27.6,0 50,-22.4 50,-50 z"
         stroke="#000000"
         stroke-width="50"
         stroke-linecap="round"
         stroke-linejoin="round"
         id="path1-6-2-9-6"
         style="display:inline" />
    </pattern>
    <pattern
       xlink:href="#pattern10-0-3-2"
       preserveAspectRatio="xMidYMid"
       id="pattern11-2-4-9"
       patternTransform="matrix(0.90900894,0,0,0.89910253,1.7850133,1.9556879)" />
    <pattern
       patternUnits="userSpaceOnUse"
       width="799.9875"
       height="799.995"
       patternTransform="scale(1)"
       preserveAspectRatio="xMidYMid"
       id="pattern10-0-3-2"
       style="fill:#000000">
      <path
         d="m 731.7375,574.975 c 27.625,-52.225 43.25,-111.8 43.25,-174.975 0,-207.1 -167.875,-375 -375,-375 L 400,400 M 325,32.52 C 153.825,67.245 25,218.57 25,399.995 c 0,207.1 167.9,375 375,375 79.725,0 152.75,-23.425 213.525,-65.85 M 212.915,525.05 C 253.29,585.3 322.015,625 399.99,625 c 124.275,0 225,-100.725 225,-225 0,-124.275 -100.725,-225 -225,-225 M 325,187.7925 c -72.75,25.7 -127.825,85.625 -144.425,162.2 M 225,400 c 0,-27.6 -22.4,-50 -50,-50 -27.6,0 -50,22.4 -50,50 0,27.6 22.4,50 50,50 27.6,0 50,-22.4 50,-50 z m 475,275 c 0,-27.6 -22.4,-50 -50,-50 -27.6,0 -50,22.4 -50,50 0,27.6 22.4,50 50,50 27.6,0 50,-22.4 50,-50 z"
         stroke="#000000"
         stroke-width="50"
         stroke-linecap="round"
         stroke-linejoin="round"
         id="path1-6-2-0-6"
         style="display:inline" />
    </pattern>
    <pattern
       xlink:href="#pattern10-0-8-4"
       preserveAspectRatio="xMidYMid"
       id="pattern11-2-2-0"
       patternTransform="matrix(0.17718662,0,0,0.17525563,4.305522,13.478015)" />
    <pattern
       patternUnits="userSpaceOnUse"
       width="799.9875"
       height="799.995"
       patternTransform="scale(1)"
       preserveAspectRatio="xMidYMid"
       id="pattern10-0-8-4"
       style="fill:#000000">
      <path
         d="m 731.7375,574.975 c 27.625,-52.225 43.25,-111.8 43.25,-174.975 0,-207.1 -167.875,-375 -375,-375 L 400,400 M 325,32.52 C 153.825,67.245 25,218.57 25,399.995 c 0,207.1 167.9,375 375,375 79.725,0 152.75,-23.425 213.525,-65.85 M 212.915,525.05 C 253.29,585.3 322.015,625 399.99,625 c 124.275,0 225,-100.725 225,-225 0,-124.275 -100.725,-225 -225,-225 M 325,187.7925 c -72.75,25.7 -127.825,85.625 -144.425,162.2 M 225,400 c 0,-27.6 -22.4,-50 -50,-50 -27.6,0 -50,22.4 -50,50 0,27.6 22.4,50 50,50 27.6,0 50,-22.4 50,-50 z m 475,275 c 0,-27.6 -22.4,-50 -50,-50 -27.6,0 -50,22.4 -50,50 0,27.6 22.4,50 50,50 27.6,0 50,-22.4 50,-50 z"
         stroke="#000000"
         stroke-width="50"
         stroke-linecap="round"
         stroke-linejoin="round"
         id="path1-6-2-9-8"
         style="display:inline" />
    </pattern>
    <pattern
       xlink:href="#pattern10-0-8-8-1-9"
       preserveAspectRatio="xMidYMid"
       id="pattern11-2-2-7-7-4"
       patternTransform="matrix(0.17718662,0,0,0.17525563,4.2679794,13.449604)" />
    <pattern
       patternUnits="userSpaceOnUse"
       width="799.9875"
       height="799.995"
       patternTransform="scale(1)"
       preserveAspectRatio="xMidYMid"
       id="pattern10-0-8-8-1-9"
       style="fill:#000000">
      <path
         d="m 731.7375,574.975 c 27.625,-52.225 43.25,-111.8 43.25,-174.975 0,-207.1 -167.875,-375 -375,-375 L 400,400 M 325,32.52 C 153.825,67.245 25,218.57 25,399.995 c 0,207.1 167.9,375 375,375 79.725,0 152.75,-23.425 213.525,-65.85 M 212.915,525.05 C 253.29,585.3 322.015,625 399.99,625 c 124.275,0 225,-100.725 225,-225 0,-124.275 -100.725,-225 -225,-225 M 325,187.7925 c -72.75,25.7 -127.825,85.625 -144.425,162.2 M 225,400 c 0,-27.6 -22.4,-50 -50,-50 -27.6,0 -50,22.4 -50,50 0,27.6 22.4,50 50,50 27.6,0 50,-22.4 50,-50 z m 475,275 c 0,-27.6 -22.4,-50 -50,-50 -27.6,0 -50,22.4 -50,50 0,27.6 22.4,50 50,50 27.6,0 50,-22.4 50,-50 z"
         stroke="#000000"
         stroke-width="50"
         stroke-linecap="round"
         stroke-linejoin="round"
         id="path1-6-2-9-6-7-0"
         style="display:inline" />
    </pattern>
    <pattern
       xlink:href="#pattern10-0-8-8-1-9-5"
       preserveAspectRatio="xMidYMid"
       id="pattern11-2-2-7-7-4-1"
       patternTransform="matrix(0.17718662,0,0,0.17525563,23.454829,23.771875)" />
    <pattern
       patternUnits="userSpaceOnUse"
       width="799.9875"
       height="799.995"
       patternTransform="scale(1)"
       preserveAspectRatio="xMidYMid"
       id="pattern10-0-8-8-1-9-5"
       style="fill:#000000">
      <path
         d="m 731.7375,574.975 c 27.625,-52.225 43.25,-111.8 43.25,-174.975 0,-207.1 -167.875,-375 -375,-375 L 400,400 M 325,32.52 C 153.825,67.245 25,218.57 25,399.995 c 0,207.1 167.9,375 375,375 79.725,0 152.75,-23.425 213.525,-65.85 M 212.915,525.05 C 253.29,585.3 322.015,625 399.99,625 c 124.275,0 225,-100.725 225,-225 0,-124.275 -100.725,-225 -225,-225 M 325,187.7925 c -72.75,25.7 -127.825,85.625 -144.425,162.2 M 225,400 c 0,-27.6 -22.4,-50 -50,-50 -27.6,0 -50,22.4 -50,50 0,27.6 22.4,50 50,50 27.6,0 50,-22.4 50,-50 z m 475,275 c 0,-27.6 -22.4,-50 -50,-50 -27.6,0 -50,22.4 -50,50 0,27.6 22.4,50 50,50 27.6,0 50,-22.4 50,-50 z"
         stroke="#000000"
         stroke-width="50"
         stroke-linecap="round"
         stroke-linejoin="round"
         id="path1-6-2-9-6-7-0-9"
         style="display:inline" />
    </pattern>
    <clipPath
       clipPathUnits="userSpaceOnUse"
       id="clipPath31">
      <path
         style="display:none;fill:#000000;stroke:none;stroke-width:1.2;stroke-dasharray:none;stroke-opacity:1"
         d="M 16.593429,21.8459 V 0 H 32 v 6.69789 z"
         id="path31" />
      <path
         id="lpe_path-effect31"
         style="display:inline;fill:#000000;stroke:none;stroke-width:1.2;stroke-dasharray:none;stroke-opacity:1"
         class="powerclip"
         d="M -4.1138281,-3.7921094 H 36.373672 V 36.37625 H -4.1138281 Z M 16.593429,21.8459 32,6.69789 V 0 H 16.593429 Z" />
    </clipPath>
    <clipPath
       clipPathUnits="userSpaceOnUse"
       id="clipPath32">
      <path
         style="display:none;fill:#000000;stroke:none;stroke-width:1.2;stroke-dasharray:none;stroke-opacity:1"
         d="M 16.593429,21.8459 V 0 H 32 v 6.6978904 z"
         id="path32" />
      <path
         id="lpe_path-effect32"
         style="fill:#000000;stroke:none;stroke-width:1.2;stroke-dasharray:none;stroke-opacity:1"
         class="powerclip"
         d="M -1.3527344,1.6978906 H 30.825859 V 30.810235 H -1.3527344 Z M 16.593429,21.8459 32,6.6978904 V 0 H 16.593429 Z" />
    </clipPath>
  </defs>
  <ellipse
     style="display:none;fill:url(#pattern11-2);stroke:#ff7878;stroke-width:1.69232;stroke-dasharray:none;stroke-opacity:1"
     id="path11-5"
     clip-path="none"
     cx="16.004707"
     cy="15.785014"
     rx="9.0548811"
     ry="8.9561996" />
  <ellipse
     style="display:none;fill:url(#pattern12);stroke:#ff7878;stroke-width:1.11748;stroke-dasharray:none;stroke-opacity:1"
     id="ellipse11"
     cx="6.9134178"
     cy="15.847241"
     rx="2.854404"
     ry="2.8232963" />
  <ellipse
     style="display:none;fill:url(#pattern11-2-2);stroke:#ff7878;stroke-width:1.11748;stroke-dasharray:none;stroke-opacity:1"
     id="path11-5-6"
     cx="6.9353895"
     cy="15.80346"
     rx="2.854404"
     ry="2.8232961"
     clip-path="none" />
  <ellipse
     style="display:none;fill:url(#pattern11-2-2-7);stroke:#ff7878;stroke-width:1.11748;stroke-dasharray:none;stroke-opacity:1"
     id="path11-5-6-3"
     cx="26.101362"
     cy="26.119987"
     rx="2.854404"
     ry="2.8232961"
     clip-path="none" />
  <path
     d="m 16.426897,1.5068493 5e-4,14.9999997"
     stroke="#000000"
     stroke-width="2"
     stroke-linecap="round"
     stroke-linejoin="round"
     id="path1-9"
     style="display:none" />
  <path
     d="m 15.323288,0.7309589 5e-4,15.0000001"
     stroke="#000000"
     stroke-width="2"
     stroke-linecap="round"
     stroke-linejoin="round"
     id="path1-9-0"
     style="display:none" />
  <g
     id="layer2"
     style="display:inline">
    <path
       id="path11-5-4-2"
       clip-path="url(#clipPath31)"
       style="display:inline;fill:url(#pattern11-2-4-9);stroke:#000000;stroke-width:1.2;stroke-dasharray:none;stroke-opacity:1"
       d="M 16.129922,1.8078906 A 14.643761,14.484171 0 0 0 1.4861719,16.292031 14.643761,14.484171 0 0 0 16.129922,30.77625 a 14.643761,14.484171 0 0 0 7.964687,-2.365391 2.854404,2.8232961 0 0 0 2.173047,1.001485 2.854404,2.8232961 0 0 0 2.854375,-2.823281 2.854404,2.8232961 0 0 0 -0.95539,-2.099922 14.643761,14.484171 0 0 0 2.607031,-8.19711 14.643761,14.484171 0 0 0 -14.64375,-14.4841404 z" />
    <path
       id="path11-5-6-6"
       clip-path="url(#clipPath32)"
       style="display:inline;fill:url(#pattern11-2-2-0);stroke:#000000;stroke-width:1.2;stroke-dasharray:none;stroke-opacity:1"
       d="m 16.171016,7.2978906 a 9.0548811,8.9561996 0 0 0 -8.5945316,6.1955474 2.854404,2.8232961 0 0 0 -0.4748438,-0.04422 2.854404,2.8232961 0 0 0 -2.854375,2.823281 2.854404,2.8232961 0 0 0 2.854375,2.823281 2.854404,2.8232961 0 0 0 0.4867188,-0.04656 9.0548811,8.9561996 0 0 0 8.5826566,6.161015 9.0548811,8.9561996 0 0 0 9.054843,-8.956171 9.0548811,8.9561996 0 0 0 -9.054843,-8.9561734 z" />
    <ellipse
       style="display:inline;fill:url(#pattern11-2-2-7-7-4);stroke:#000000;stroke-width:1.11748;stroke-dasharray:none;stroke-opacity:1"
       id="path11-5-6-3-1-7"
       cx="7.0641284"
       cy="16.244087"
       rx="2.854404"
       ry="2.8232961"
       clip-path="none" />
    <ellipse
       style="display:inline;fill:url(#pattern11-2-2-7-7-4-1);stroke:#000000;stroke-width:1.2;stroke-dasharray:none;stroke-opacity:1"
       id="path11-5-6-3-1-7-6"
       cx="26.250978"
       cy="26.566359"
       rx="2.854404"
       ry="2.8232961"
       clip-path="none" />
    <path
       d="m 16.593179,2.2158904 5e-4,14.9999996"
       stroke="#000000"
       stroke-width="2"
       stroke-linecap="round"
       stroke-linejoin="round"
       id="path1-9-06"
       style="display:inline" />
  </g>
</svg>
