<?xml version="1.0" encoding="UTF-8" standalone="no"?>
<!-- Uploaded to: SVG Repo, www.svgrepo.com, Generator: SVG Repo Mixer Tools -->

<svg
   width="800px"
   height="800px"
   viewBox="0 0 32 32"
   fill="none"
   version="1.1"
   id="svg1"
   sodipodi:docname="radar.svg"
   inkscape:version="1.4.3 (0d15f75042, 2025-12-25)"
   inkscape:export-filename="radar.svg"
   inkscape:export-xdpi="96"
   inkscape:export-ydpi="96"
   xmlns:inkscape="http://www.inkscape.org/namespaces/inkscape"
   xmlns:sodipodi="http://sodipodi.sourceforge.net/DTD/sodipodi-0.dtd"
   xmlns="http://www.w3.org/2000/svg"
   xmlns:svg="http://www.w3.org/2000/svg">
  <sodipodi:namedview
     id="namedview1"
     pagecolor="#ffffff"
     bordercolor="#000000"
     borderopacity="0.25"
     inkscape:showpageshadow="2"
     inkscape:pageopacity="0.0"
     inkscape:pagecheckerboard="0"
     inkscape:deskcolor="#d1d1d1"
     inkscape:zoom="0.77155486"
     inkscape:cx="312.35627"
     inkscape:cy="383.6409"
     inkscape:window-width="1536"
     inkscape:window-height="795"
     inkscape:window-x="0"
     inkscape:window-y="0"
     inkscape:window-maximized="1"
     inkscape:current-layer="svg1"
     showguides="false" />
  <defs
     id="defs1">
    <inkscape:path-effect
       effect="powerclip"
       message=""
       id="path-effect9"
       is_visible="true"
       lpeversion="1"
       inverse="true"
       flatten="false"
       hide_clip="false" />
    <inkscape:path-effect
       effect="powerclip"
       message=""
       id="path-effect3"
       is_visible="true"
       lpeversion="1"
       inverse="true"
       flatten="false"
       hide_clip="false" />
    <clipPath
       id="clip0_901_2624">
      <rect
         width="32"
         height="32"
         fill="white"
         id="rect1" />
    </clipPath>
    <clipPath
       id="clip0_901_2624-7">
      <rect
         width="32"
         height="32"
         fill="#ffffff"
         id="rect1-5"
         x="0"
         y="0" />
    </clipPath>
    <pattern
       patternUnits="userSpaceOnUse"
       width="799.9875"
       height="799.995"
       patternTransform="scale(1)"
       preserveAspectRatio="xMidYMid"
       id="pattern10"
       style="fill:#000000"
       inkscape:label="pattern10">
      <path
         d="m 731.7375,574.975 c 27.625,-52.225 43.25,-111.8 43.25,-174.975 0,-207.1 -167.875,-375 -375,-375 L 400,400 M 325,32.52 C 153.825,67.245 25,218.57 25,399.995 c 0,207.1 167.9,375 375,375 79.725,0 152.75,-23.425 213.525,-65.85 M 212.915,525.05 C 253.29,585.3 322.015,625 399.99,625 c 124.275,0 225,-100.725 225,-225 0,-124.275 -100.725,-225 -225,-225 M 325,187.7925 c -72.75,25.7 -127.825,85.625 -144.425,162.2 M 225,400 c 0,-27.6 -22.4,-50 -50,-50 -27.6,0 -50,22.4 -50,50 0,27.6 22.4,50 50,50 27.6,0 50,-22.4 50,-50 z m 475,275 c 0,-27.6 -22.4,-50 -50,-50 -27.6,0 -50,22.4 -50,50 0,27.6 22.4,50 50,50 27.6,0 50,-22.4 50,-50 z"
         stroke="#000000"
         stroke-width="50"
         stroke-linecap="round"
         stroke-linejoin="round"
         id="path1-6"
         style="display:inline" />
    </pattern>
    <clipPath
       id="clip0_901_2624-1">
      <rect
         width="32"
         height="32"
         fill="#ffffff"
         id="rect1-2"
         x="0"
         y="0" />
    </clipPath>
    <clipPath
       id="clip0_901_2624-0">
      <rect
         width="32"
         height="32"
         fill="#ffffff"
         id="rect1-6"
         x="0"
         y="0" />
    </clipPath>
    <pattern
       patternUnits="userSpaceOnUse"
       width="799.9875"
       height="799.995"
       patternTransform="scale(1)"
       preserveAspectRatio="xMidYMid"
       id="pattern10-0"
       style="fill:#000000"
       inkscape:label="pattern10">
      <path
         d="m 731.7375,574.975 c 27.625,-52.225 43.25,-111.8 43.25,-174.975 0,-207.1 -167.875,-375 -375,-375 L 400,400 M 325,32.52 C 153.825,67.245 25,218.57 25,399.995 c 0,207.1 167.9,375 375,375 79.725,0 152.75,-23.425 213.525,-65.85 M 212.915,525.05 C 253.29,585.3 322.015,625 399.99,625 c 124.275,0 225,-100.725 225,-225 0,-124.275 -100.725,-225 -225,-225 M 325,187.7925 c -72.75,25.7 -127.825,85.625 -144.425,162.2 M 225,400 c 0,-27.6 -22.4,-50 -50,-50 -27.6,0 -50,22.4 -50,50 0,27.6 22.4,50 50,50 27.6,0 50,-22.4 50,-50 z m 475,275 c 0,-27.6 -22.4,-50 -50,-50 -27.6,0 -50,22.4 -50,50 0,27.6 22.4,50 50,50 27.6,0 50,-22.4 50,-50 z"
         stroke="#000000"
         stroke-width="50"
         stroke-linecap="round"
         stroke-linejoin="round"
         id="path1-6-2"
         style="display:inline" />
    </pattern>
    <pattern
       patternUnits="userSpaceOnUse"
       width="799.9875"
       height="799.995"
       patternTransform="scale(1)"
       preserveAspectRatio="xMidYMid"
       id="pattern10-0-8"
       style="fill:#000000"
       inkscape:label="pattern10">
      <path
         d="m 731.7375,574.975 c 27.625,-52.225 43.25,-111.8 43.25,-174.975 0,-207.1 -167.875,-375 -375,-375 L 400,400 M 325,32.52 C 153.825,67.245 25,218.57 25,399.995 c 0,207.1 167.9,375 375,375 79.725,0 152.75,-23.425 213.525,-65.85 M 212.915,525.05 C 253.29,585.3 322.015,625 399.99,625 c 124.275,0 225,-100.725 225,-225 0,-124.275 -100.725,-225 -225,-225 M 325,187.7925 c -72.75,25.7 -127.825,85.625 -144.425,162.2 M 225,400 c 0,-27.6 -22.4,-50 -50,-50 -27.6,0 -50,22.4 -50,50 0,27.6 22.4,50 50,50 27.6,0 50,-22.4 50,-50 z m 475,275 c 0,-27.6 -22.4,-50 -50,-50 -27.6,0 -50,22.4 -50,50 0,27.6 22.4,50 50,50 27.6,0 50,-22.4 50,-50 z"
         stroke="#000000"
         stroke-width="50"
         stroke-linecap="round"
         stroke-linejoin="round"
         id="path1-6-2-9"
         style="display:inline" />
    </pattern>
    <pattern
       patternUnits="userSpaceOnUse"
       width="799.9875"
       height="799.995"
       patternTransform="scale(1)"
       preserveAspectRatio="xMidYMid"
       id="pattern10-0-8-3"
       style="fill:#000000"
       inkscape:label="pattern10">
      <path
         d="m 731.7375,574.975 c 27.625,-52.225 43.25,-111.8 43.25,-174.975 0,-207.1 -167.875,-375 -375,-375 L 400,400 M 325,32.52 C 153.825,67.245 25,218.57 25,399.995 c 0,207.1 167.9,375 375,375 79.725,0 152.75,-23.425 213.525,-65.85 M 212.915,525.05 C 253.29,585.3 322.015,625 399.99,625 c 124.275,0 225,-100.725 225,-225 0,-124.275 -100.725,-225 -225,-225 M 325,187.7925 c -72.75,25.7 -127.825,85.625 -144.425,162.2 M 225,400 c 0,-27.6 -22.4,-50 -50,-50 -27.6,0 -50,22.4 -50,50 0,27.6 22.4,50 50,50 27.6,0 50,-22.4 50,-50 z m 475,275 c 0,-27.6 -22.4,-50 -50,-50 -27.6,0 -50,22.4 -50,50 0,27.6 22.4,50 50,50 27.6,0 50,-22.4 50,-50 z"
         stroke="#000000"
         stroke-width="50"
         stroke-linecap="round"
         stroke-linejoin="round"
         id="path1-6-2-9-1"
         style="display:inline" />
    </pattern>
  </defs>
  <path
     id="path4"
     style="baseline-shift:baseline;display:inline;overflow:visible;vector-effect:none;fill:#000000;enable-background:accumulate;stop-color:#000000"
     d="m 16.02125,0.078125 c -8.8372532,0 -16.03125,7.1094934 -16.03125,15.867187 0,8.757695 7.1939968,15.867188 16.03125,15.867188 8.837253,0 16.03125,-7.109494 16.03125,-15.867188 0,-1.364466 -0.192906,-2.681752 -0.521172,-3.945546 l -1.736016,0.844218 c 0.228605,0.99869 0.360704,2.033706 0.360704,3.101328 0,7.721762 -6.310988,13.970704 -14.134766,13.970704 -7.8237778,0 -14.1367185,-6.248942 -14.1367188,-13.970704 2e-7,-7.4593514 5.8911842,-13.5442615 13.3445318,-13.9492182 v 4.0375 C 10.249567,6.538426 6.3435156,10.716179 6.3435156,15.785156 c 0,5.408713 4.4472004,9.802735 9.9003904,9.802735 5.453191,0 9.902344,-4.394022 9.902344,-9.802735 0,-0.383383 -0.028,-0.759891 -0.07148,-1.131875 l -1.638907,0.796953 c 0.0046,0.111951 0.01703,0.221835 0.01703,0.334922 0,4.484033 -3.66043,8.109375 -8.208985,8.109375 -4.548555,0 -8.207031,-3.625342 -8.207031,-8.109375 0,-4.145138 3.12639,-7.5564702 7.192188,-8.0484372 v 8.3414062 a 1,1 0 0 0 1,1 1,1 0 0 0 0.999999,-1 v -15 a 1,1 0 0 0 -0.999999,-1 1,1 0 0 0 -0.04086,8.5937e-4 C 16.132615,0.0784242 16.07697,0.078125 16.02125,0.078125 Z" />
</svg>
