<?xml version="1.0" encoding="UTF-8"?>
<svg width="32" height="32" viewBox="0 0 32 32" fill="none" xmlns="http://www.w3.org/2000/svg">
  <path fill="#000000" d="m 16.02125,0.078125 c -8.8372532,0 -16.03125,7.1094934 -16.03125,15.867187 0,8.757695 7.1939968,15.867188 16.03125,15.867188 8.837253,0 16.03125,-7.109494 16.03125,-15.867188 0,-1.364466 -0.192906,-2.681752 -0.521172,-3.945546 l -1.736016,0.844218 c 0.228605,0.99869 0.360704,2.033706 0.360704,3.101328 0,7.721762 -6.310988,13.970704 -14.134766,13.970704 -7.8237778,0 -14.1367185,-6.248942 -14.1367188,-13.970704 2e-7,-7.4593514 5.8911842,-13.5442615 13.3445318,-13.9492182 v 4.0375 C 10.249567,6.538426 6.3435156,10.716179 6.3435156,15.785156 c 0,5.408713 4.4472004,9.802735 9.9003904,9.802735 5.453191,0 9.902344,-4.394022 9.902344,-9.802735 0,-0.383383 -0.028,-0.759891 -0.07148,-1.131875 l -1.638907,0.796953 c 0.0046,0.111951 0.01703,0.221835 0.01703,0.334922 0,4.484033 -3.66043,8.109375 -8.208985,8.109375 -4.548555,0 -8.207031,-3.625342 -8.207031,-8.109375 0,-4.145138 3.12639,-7.5564702 7.192188,-8.0484372 v 8.3414062 a 1,1 0 0 0 1,1 1,1 0 0 0 0.999999,-1 v -15 a 1,1 0 0 0 -0.999999,-1 1,1 0 0 0 -0.04086,8.5937e-4 C 16.132615,0.0784242 16.07697,0.078125 16.02125,0.078125 Z" />
</svg>
