<?xml version="1.0" encoding="UTF-8"?>
<svg xmlns="http://www.w3.org/2000/svg" viewBox="0 0 32 32" width="32" height="32">
  <path fill="#000000" d="M 15.78125 0.078125 C 6.9439968 0.078125 -0.25 7.1876184 -0.25 15.945312 C -0.25 24.703007 6.9439968 31.8125 15.78125 31.8125 C 24.618503 31.8125 31.8125 24.703006 31.8125 15.945312 C 31.8125 14.580846 31.619594 13.26356 31.291328 11.999766 L 29.555312 12.843984 C 29.783917 13.842674 29.916016 14.87769 29.916016 15.945312 C 29.916016 23.667074 23.605028 29.916016 15.78125 29.916016 C 7.9574722 29.916016 1.6445315 23.667074 1.6445312 15.945312 C 1.6445314 8.4859606 7.5357154 2.4010505 14.989063 1.9960938 L 14.989063 6.0335938 C 10.009567 6.538426 6.1035156 10.716179 6.1035156 15.785156 C 6.1035156 21.193869 10.550716 25.587891 16.003906 25.587891 C 21.457097 25.587891 25.90625 21.193869 25.90625 15.785156 C 25.90625 15.401773 25.878247 15.025265 25.834766 14.653281 L 24.195859 15.450234 C 24.200471 15.562185 24.212891 15.672069 24.212891 15.785156 C 24.212891 20.269189 20.552461 23.894531 16.003906 23.894531 C 11.455351 23.894531 7.796875 20.269189 7.796875 15.785156 C 7.796875 11.640018 10.923265 8.2286858 14.989063 7.7367188 L 14.989063 16.078125 A 1 1 0 0 0 15.989063 17.078125 A 1 1 0 0 0 16.989062 16.078125 L 16.989062 1.078125 A 1 1 0 0 0 15.989063 0.078125 A 1 1 0 0 0 15.948203 0.078984375 C 15.892615 0.0784242 15.83697 0.078125 15.78125 0.078125 Z"/>
</svg>
